<svg id="user" xmlns="http://www.w3.org/2000/svg" viewBox="0 0 205.2 205.2"><style>.st0{fill:#fff;stroke:#fff;stroke-width:3.0486;stroke-miterlimit:10}</style><path class="st0" d="M102.9 89.9c-22.6 0-41.1-18.4-41.1-41.1S80.2 7.7 102.9 7.7c22.7 0 41.1 18.4 41.1 41.1s-18.5 41.1-41.1 41.1zm0-74.5c-18.4 0-33.4 15-33.4 33.4s15 33.4 33.4 33.4 33.4-15 33.4-33.4-15-33.4-33.4-33.4zM102.9 198.3c-26.2 0-43.9-5-53.9-15.2-10.7-10.9-10.5-25.3-10.3-36.9v-4.4c0-10.6 0-21.4 8.8-29.2 9.2-8.2 26.2-11.8 55.3-11.8s46.1 3.6 55.3 11.8c8.8 7.8 8.8 18.6 8.8 29l-3.8.4h3.8c0 2 .1 4.1.2 6.2.4 11 1 24.6-9 35.1-9.7 10-27.8 15-55.2 15zm0-89.8c-26.3 0-42.7 3.2-50.2 9.9-6.3 5.6-6.3 13.4-6.3 23.4l-.1 4.6c-.2 10.6-.4 22.7 8.1 31.3 8.4 8.5 24.7 12.9 48.4 12.9 24.9 0 41.6-4.3 49.8-12.8 7.7-8.1 7.3-18.9 6.9-29.4-.1-2.3-.2-4.5-.2-6.5v-.4c0-9.9 0-17.7-6.2-23.2-7.5-6.6-23.9-9.8-50.2-9.8z"/></svg>